<svg width="78" height="80" viewBox="0 0 78 80" fill="none" xmlns="http://www.w3.org/2000/svg">
<g clip-path="url(#clip0_518_5810)">
<path d="M60.3004 70.8H18.6004C18.5004 70.8 18.3004 70.8 18.2004 70.7C7.40039 63.5 0.900391 51.5 0.900391 38.5C0.900391 17.3 18.2004 0 39.4004 0C60.7004 0 77.9004 17.3 77.9004 38.5C77.9004 51.5 71.4004 63.5 60.6004 70.7C60.6004 70.8 60.4004 70.8 60.3004 70.8ZM18.8004 69.5H60.2004C70.6004 62.6 76.8004 51 76.8004 38.5C76.7004 18 60.0004 1.3 39.4004 1.3C18.9004 1.3 2.20039 18 2.20039 38.5C2.20039 51 8.40039 62.6 18.8004 69.5Z" fill="#232023"/>
<path d="M62.8 64.5H16.1C15.7 64.5 15.5 64.2 15.5 63.8V46.7C15.5 46.4 15.7 46.2 15.9 46.1L31.9 39.8C32.1 39.7 32.4 39.8 32.6 39.9L39.2 46.2L46.3 39.8C46.5 39.6 46.7 39.6 47 39.7L63 46C63.2 46.1 63.4 46.3 63.4 46.6V63.7C63.4 64.2 63.1 64.5 62.8 64.5ZM16.8 63.2H62.1V47.1L46.8 41.1L39.5 47.6C39.2 47.8 38.9 47.8 38.6 47.6L31.9 41.1L16.7 47.1V63.2H16.8Z" fill="#232023"/>
<path d="M54.9004 64.4998H24.0004C23.6004 64.4998 23.4004 64.1998 23.4004 63.7998V52.9998C23.4004 52.5998 23.7004 52.2998 24.0004 52.2998C24.4004 52.2998 24.6004 52.5998 24.6004 52.9998V63.0998H54.2004V52.9998C54.2004 52.5998 54.5004 52.2998 54.8004 52.2998C55.2004 52.2998 55.4004 52.5998 55.4004 52.9998V63.7998C55.6004 64.1998 55.3004 64.4998 54.9004 64.4998Z" fill="#232023"/>
<path d="M47.2006 49.3002H31.7006C31.3006 49.3002 31.1006 49.0002 31.1006 48.6002V40.4002C31.1006 40.0002 31.4006 39.7002 31.7006 39.7002C32.1006 39.7002 32.3006 40.0002 32.3006 40.4002V48.0002H46.4006V40.4002C46.4006 40.0002 46.7006 39.7002 47.0006 39.7002C47.4006 39.7002 47.6006 40.0002 47.6006 40.4002V48.6002C47.8006 49.0002 47.5006 49.3002 47.2006 49.3002Z" fill="#232023"/>
<path d="M41.8006 54.5998H37.2006C36.8006 54.5998 36.6006 54.2998 36.6006 53.8998V48.4998C36.6006 48.0998 36.9006 47.7998 37.2006 47.7998H41.8006C42.2006 47.7998 42.4006 48.0998 42.4006 48.4998V53.9998C42.4006 54.3998 42.1006 54.5998 41.8006 54.5998ZM37.8006 53.2998H41.1006V49.1998H37.8006V53.2998Z" fill="#232023"/>
<path d="M43.7006 64.4999H34.8006C34.6006 64.4999 34.4006 64.3999 34.3006 64.2999C34.2006 64.0999 34.1006 63.8999 34.2006 63.6999L36.6006 53.8999C36.7006 53.5999 36.9006 53.3999 37.2006 53.3999H41.8006C42.1006 53.3999 42.4006 53.5999 42.4006 53.8999L44.3006 63.6999C44.3006 63.8999 44.3006 64.0999 44.2006 64.1999C44.0006 64.3999 43.8006 64.4999 43.7006 64.4999ZM35.6006 63.1999H42.9006L41.3006 54.6999H37.7006L35.6006 63.1999Z" fill="#232023"/>
<path d="M39.6004 37.0001C32.9004 37.0001 27.4004 31.5001 27.4004 24.8001C27.4004 18.1001 32.9004 12.6001 39.6004 12.6001C46.3004 12.6001 51.8004 18.1001 51.8004 24.8001C51.9004 31.6001 46.4004 37.0001 39.6004 37.0001ZM39.6004 13.9001C33.6004 13.9001 28.7004 18.8001 28.7004 24.8001C28.7004 30.8001 33.6004 35.7001 39.6004 35.7001C45.6004 35.7001 50.5004 30.8001 50.5004 24.8001C50.6004 18.8001 45.7004 13.9001 39.6004 13.9001Z" fill="#232023"/>
<path d="M48.4005 22.8C45.4005 22.8 42.5005 21.9 40.4005 20.3C40.1005 20.1 40.1005 19.7 40.3005 19.4C40.5005 19.1 40.9005 19.1 41.2005 19.3C43.6005 21.1 47.3005 21.9 50.7005 21.3C51.1005 21.2 51.4005 21.5 51.5005 21.8C51.6005 22.2 51.3005 22.5 51.0005 22.6C50.1005 22.7 49.3005 22.8 48.4005 22.8Z" fill="#232023"/>
<path d="M33.6002 22.5999C31.8002 22.5999 30.1002 22.2999 28.5002 21.6999C28.2002 21.5999 28.0002 21.1999 28.1002 20.8999C28.2002 20.5999 28.6002 20.3999 28.9002 20.4999C30.3002 20.9999 31.9002 21.2999 33.5002 21.2999C38.8002 21.2999 43.2002 18.2999 43.2002 14.5999C43.2002 14.1999 43.5002 13.8999 43.8002 13.8999C44.2002 13.8999 44.4002 14.1999 44.4002 14.5999C44.5002 18.9999 39.6002 22.5999 33.6002 22.5999Z" fill="#232023"/>
<path d="M74.0008 75.3H4.90078C4.50078 75.3 4.30078 75 4.30078 74.6C4.30078 74.3 4.50078 74 4.90078 74H74.0008C74.4008 74 74.6008 74.3 74.6008 74.7C74.6008 75 74.3008 75.3 74.0008 75.3Z" fill="#232023"/>
<path d="M74.0008 79.1002H4.90078C4.50078 79.1002 4.30078 78.8002 4.30078 78.4002C4.30078 78.0002 4.60078 77.7002 4.90078 77.7002H74.0008C74.4008 77.7002 74.6008 78.0002 74.6008 78.4002C74.6008 78.8002 74.3008 79.1002 74.0008 79.1002Z" fill="#232023"/>
</g>
<defs>
<clipPath id="clip0_518_5810">
<rect width="77.1" height="79.1" fill="white" transform="translate(0.900391)"/>
</clipPath>
</defs>
</svg>
