<svg width="80" height="72" viewBox="0 0 80 72" fill="none" xmlns="http://www.w3.org/2000/svg">
<g clip-path="url(#clip0_518_5680)">
<path d="M5.10009 48.1C5.00009 48.1 4.90009 48.1 4.80009 48C4.70009 47.9 4.50009 47.8 4.50009 47.6L9.27746e-05 31.1C-0.0999072 30.8 0.100093 30.4 0.500093 30.3L7.30009 28.5C7.50009 28.5 7.60009 28.5 7.80009 28.6C7.90009 28.7 8.10009 28.8 8.10009 29L12.5001 45.5C12.6001 45.8 12.4001 46.2 12.0001 46.3L5.20009 48.1H5.10009ZM1.40009 31.4L5.50009 46.7L11.0001 45.2L7.00009 29.9L1.40009 31.4Z" fill="#232023"/>
<path d="M46.1002 45.5004L11.4002 44.6004C11.1002 44.6004 10.9002 44.4004 10.8002 44.1004L7.3002 30.9004C7.2002 30.6004 7.3002 30.3004 7.6002 30.2004L37.2002 12.1004C37.4002 12.0004 37.7002 12.0004 37.9002 12.1004C38.1002 12.2004 38.2002 12.5004 38.2002 12.7004C37.7002 17.6004 38.3002 23.5004 39.9002 29.3004C41.4002 35.1004 43.9002 40.4004 46.7002 44.4004C46.8002 44.5004 46.9002 44.7004 46.9002 44.9004C46.8002 45.3004 46.5002 45.5004 46.1002 45.5004ZM11.9002 43.4004L44.8002 44.2004C42.2002 40.2004 39.9002 35.1004 38.5002 29.6004C37.0002 24.1004 36.4002 18.6004 36.7002 13.8004L8.6002 31.0004L11.9002 43.4004Z" fill="#232023"/>
<path d="M55.8998 52.3001C49.5998 52.3001 42.2998 42.5001 38.7998 29.6001C34.8998 15.2001 37.0998 2.5001 43.6998 0.800098C44.1998 0.700098 44.6998 0.600098 45.1998 0.600098C51.4998 0.600098 58.7998 10.4001 62.2998 23.3001C66.1998 37.7001 63.9998 50.4001 57.3998 52.1001C56.9998 52.2001 56.3998 52.3001 55.8998 52.3001ZM45.1998 1.8001C44.7998 1.8001 44.3998 1.9001 43.9998 2.0001C38.2998 3.5001 36.4998 16.0001 39.9998 29.3001C43.2998 41.4001 50.2998 51.0001 55.8998 51.0001C56.2998 51.0001 56.6998 50.9001 57.0998 50.8001C62.7998 49.3001 64.5998 36.8001 61.0998 23.5001C57.7998 11.4001 50.8998 1.8001 45.1998 1.8001Z" fill="#232023"/>
<path d="M60.2998 50.1002C60.1998 50.1002 60.0998 50.1002 60.0998 50.1002C54.3998 47.9002 48.4998 39.0002 45.4998 27.8002C42.4998 16.6002 43.0998 5.90017 46.9998 1.20017C47.1998 1.00017 47.4998 0.900168 47.6998 1.00017C53.4998 3.10017 59.3998 12.0002 62.3998 23.3002C65.3998 34.5002 64.7998 45.2002 60.8998 49.9002C60.6998 50.0002 60.4998 50.1002 60.2998 50.1002ZM47.6998 2.40017C44.3998 6.90017 43.8998 17.1002 46.6998 27.5002C49.4998 37.8002 54.8998 46.5002 60.0998 48.7002C63.3998 44.2002 63.8998 34.0002 61.0998 23.6002C58.2998 13.2002 52.8998 4.60017 47.6998 2.40017Z" fill="#232023"/>
<path d="M47.0004 31.2001C46.7004 31.2001 46.5004 31.0001 46.4004 30.7001C46.1004 29.6001 45.8004 28.6001 45.5004 27.7001C45.2004 26.7001 45.0004 25.7001 44.8004 24.7001C44.7004 24.4001 44.9004 24.1001 45.2004 24.0001C46.0004 23.6001 46.8004 23.4001 47.6004 23.1001C48.9004 22.8001 50.2004 22.6001 51.4004 22.6001C54.0004 22.6001 55.8004 23.5001 56.2004 24.9001C56.5004 26.0001 55.9004 27.2001 54.6004 28.3001C53.4004 29.3001 51.6004 30.1001 49.7004 30.7001C48.7004 31.0001 47.8004 31.1001 47.0004 31.2001ZM46.1004 25.0001C46.3004 25.8001 46.5004 26.7001 46.7004 27.4001C46.9004 28.1001 47.1004 28.9001 47.4004 29.8001C48.0004 29.7001 48.6004 29.6001 49.2004 29.4001C51.0004 28.9001 52.5004 28.2001 53.6004 27.3001C54.5004 26.5001 55.0004 25.8001 54.8004 25.2001C54.6004 24.4001 53.2004 23.9001 51.3004 23.9001C50.2004 23.9001 49.0004 24.1001 47.8004 24.4001C47.3004 24.6001 46.7004 24.8001 46.1004 25.0001Z" fill="#232023"/>
<path d="M28.1002 67.6004C27.9002 67.6004 27.6002 67.5004 27.5002 67.3004L14.9002 44.4004C14.8002 44.2004 14.8002 43.9004 14.9002 43.7004C15.0002 43.5004 15.3002 43.4004 15.5002 43.4004L23.2002 43.8004C23.4002 43.8004 23.6002 43.9004 23.7002 44.1004L34.7002 63.9004C34.8002 64.1004 34.8002 64.3004 34.7002 64.4004C34.6002 64.6004 34.5002 64.7004 34.3002 64.8004L28.1002 67.4004C28.2002 67.6004 28.2002 67.6004 28.1002 67.6004ZM16.6002 44.8004L28.3002 66.1004L33.3002 64.0004L22.8002 45.1004L16.6002 44.8004Z" fill="#232023"/>
<path d="M15.1997 36.5003C14.8997 36.5003 14.6997 36.3003 14.5997 36.0003C14.4997 35.7003 14.6997 35.3003 15.0997 35.2003L35.4997 29.7003C35.7997 29.6003 36.1997 29.8003 36.2997 30.2003C36.3997 30.5003 36.1997 30.9003 35.7997 31.0003L15.3997 36.5003C15.2997 36.5003 15.2997 36.5003 15.1997 36.5003Z" fill="#232023"/>
<path d="M70.1001 20.3003C69.8001 20.3003 69.6001 20.1003 69.5001 19.8003C69.4001 19.5003 69.6001 19.1003 70.0001 19.0003L76.7001 17.2003C77.0001 17.1003 77.4001 17.3003 77.5001 17.7003C77.6001 18.0003 77.4001 18.4003 77.0001 18.5003L70.3001 20.3003C70.2001 20.3003 70.2001 20.3003 70.1001 20.3003Z" fill="#232023"/>
<path d="M78.4998 28.6002H71.4998C71.0998 28.6002 70.7998 28.3002 70.7998 27.9002C70.7998 27.5002 71.0998 27.2002 71.4998 27.2002H78.4998C78.8998 27.2002 79.1998 27.5002 79.1998 27.9002C79.1998 28.3002 78.7998 28.6002 78.4998 28.6002Z" fill="#232023"/>
<path d="M77.4001 38.7001C77.3001 38.7001 77.3001 38.7001 77.2001 38.7001L70.5001 36.9001C70.2001 36.8001 69.9001 36.5001 70.0001 36.1001C70.1001 35.8001 70.5001 35.6001 70.8001 35.6001L77.5001 37.4001C77.8001 37.5001 78.1001 37.8001 78.0001 38.2001C78.0001 38.5001 77.7001 38.7001 77.4001 38.7001Z" fill="#232023"/>
<path d="M61.3002 6.2001C61.1002 6.2001 61.0002 6.1001 60.8002 6.0001C60.5002 5.7001 60.5002 5.3001 60.8002 5.1001L65.7002 0.200098C66.0002 -0.0999023 66.4002 -0.0999023 66.6002 0.200098C66.9002 0.500098 66.9002 0.900098 66.6002 1.1001L61.8002 6.0001C61.6002 6.2001 61.5002 6.2001 61.3002 6.2001Z" fill="#232023"/>
<path d="M66.6005 12.7C66.4005 12.7 66.2005 12.6 66.0005 12.4C65.8005 12.1 65.9005 11.7 66.2005 11.5L72.2005 8.00005C72.5005 7.80005 72.9005 7.90005 73.1005 8.20005C73.3005 8.50005 73.2005 8.90005 72.9005 9.10005L66.9005 12.6C66.9005 12.7 66.7005 12.7 66.6005 12.7Z" fill="#232023"/>
<path d="M59.4996 68.5001H3.79961C3.39961 68.5001 3.09961 68.2001 3.09961 67.8001C3.09961 67.4001 3.39961 67.1001 3.79961 67.1001H59.4996C59.8996 67.1001 60.1996 67.4001 60.1996 67.8001C60.1996 68.2001 59.7996 68.5001 59.4996 68.5001Z" fill="#232023"/>
<path d="M71.6002 71.9H15.9002C15.5002 71.9 15.2002 71.6 15.2002 71.2C15.2002 70.8 15.5002 70.5 15.9002 70.5H71.6002C72.0002 70.5 72.3002 70.8 72.3002 71.2C72.3002 71.6 72.0002 71.9 71.6002 71.9Z" fill="#232023"/>
</g>
<defs>
<clipPath id="clip0_518_5680">
<rect width="79.1" height="71.9" fill="white"/>
</clipPath>
</defs>
</svg>
