<svg width="74" height="80" viewBox="0 0 74 80" fill="none" xmlns="http://www.w3.org/2000/svg">
<g clip-path="url(#clip0_518_5713)">
<path d="M70.4996 65.8999C72.4996 69.1999 73.0996 71.9999 71.9996 73.8999C68.8996 79.2999 53.6996 76.3999 36.5996 67.6999C38.6996 66.6999 40.7996 65.4999 42.8996 64.2999C48.8996 60.7999 54.2996 57.0999 58.7996 53.3999L58.8996 53.5999C62.6996 56.6999 65.7996 59.7999 68.0996 62.5999C67.5996 62.9999 67.2996 63.4999 67.2996 64.1999C67.2996 65.2999 68.1996 66.1999 69.2996 66.1999C69.7996 66.1999 70.1996 66.0999 70.4996 65.8999Z" stroke="#232023" stroke-width="1.3" stroke-miterlimit="10" stroke-linecap="round" stroke-linejoin="round"/>
<path d="M69.3994 62.2998C70.4994 62.2998 71.3994 63.1998 71.3994 64.2998C71.3994 64.9998 70.9994 65.5998 70.4994 65.9998C70.1994 66.1998 69.7994 66.2998 69.3994 66.2998C68.2994 66.2998 67.3994 65.3998 67.3994 64.2998C67.3994 63.6998 67.6994 63.0998 68.1994 62.6998C68.4994 62.3998 68.8994 62.2998 69.3994 62.2998Z" stroke="#232023" stroke-width="1.3" stroke-miterlimit="10" stroke-linecap="round" stroke-linejoin="round"/>
<path d="M68.0996 30.3999C68.0996 30.4999 68.0996 30.5999 68.0996 30.6999C67.9996 31.6999 67.0996 32.3999 66.0996 32.3999C64.9996 32.3999 64.0996 31.4999 64.0996 30.3999C64.0996 29.2999 64.9996 28.3999 66.0996 28.3999C67.1996 28.3999 68.0996 29.2999 68.0996 30.3999Z" stroke="#232023" stroke-width="1.3" stroke-miterlimit="10" stroke-linecap="round" stroke-linejoin="round"/>
<path d="M45.5 42.5996V45.2996H42.6H31.9H29V43.3996V42.5996H45.5Z" stroke="#232023" stroke-width="1.3" stroke-miterlimit="10" stroke-linecap="round" stroke-linejoin="round"/>
<path d="M45.4 39.7998H29V42.5998H45.4V39.7998Z" stroke="#232023" stroke-width="1.3" stroke-miterlimit="10" stroke-linecap="round" stroke-linejoin="round"/>
<path d="M45.4 36.7998H29V39.7998H45.4V36.7998Z" stroke="#232023" stroke-width="1.3" stroke-miterlimit="10" stroke-linecap="round" stroke-linejoin="round"/>
<path d="M42.5994 45.2998V50.0998H38.9994H35.4994H31.8994V45.2998H42.5994Z" stroke="#232023" stroke-width="1.3" stroke-miterlimit="10" stroke-linecap="round" stroke-linejoin="round"/>
<path d="M39 50.0996H35.5V54.2996H39V50.0996Z" stroke="#232023" stroke-width="1.3" stroke-miterlimit="10" stroke-linecap="round" stroke-linejoin="round"/>
<path d="M28.9996 36.7999V39.7999V42.5999V43.3999H28.8996C23.4996 46.5999 18.5996 50.0999 14.3996 53.3999C4.29961 45.1999 -1.20039 37.1999 1.19961 32.9999C2.69961 30.3999 6.99961 29.6999 12.8996 30.6999C12.8996 30.7999 12.8996 30.8999 12.8996 31.0999C12.8996 32.1999 13.7996 33.0999 14.8996 33.0999C15.7996 33.0999 16.5996 32.3999 16.7996 31.5999C20.3996 32.4999 24.3996 33.7999 28.6996 35.5999H28.9996V36.7999Z" stroke="#232023" stroke-width="1.3" stroke-miterlimit="10" stroke-linecap="round" stroke-linejoin="round"/>
<path d="M12.8994 30.7001C13.0994 29.8001 13.8994 29.1001 14.8994 29.1001C15.9994 29.1001 16.8994 30.0001 16.8994 31.1001C16.8994 31.3001 16.8994 31.4001 16.8994 31.5001C16.6994 32.4001 15.8994 33.0001 14.9994 33.0001C13.8994 33.0001 12.9994 32.1001 12.9994 31.0001C12.8994 31.0001 12.8994 30.9001 12.8994 30.7001Z" stroke="#232023" stroke-width="1.3" stroke-miterlimit="10" stroke-linecap="round" stroke-linejoin="round"/>
<path d="M7.89941 76.5V76.6C7.79941 77.6 6.99941 78.4 5.89941 78.4C4.79941 78.4 3.89941 77.5 3.89941 76.4C3.89941 76.2 3.89941 76.1 3.89941 76C4.09941 75.1 4.89941 74.5 5.79941 74.5C6.99941 74.5 7.89941 75.4 7.89941 76.5Z" stroke="#232023" stroke-width="1.3" stroke-miterlimit="10" stroke-linecap="round" stroke-linejoin="round"/>
<path d="M31.8998 45.2999H28.9998V43.4999V42.6999V39.8999V36.8999V35.5999V34.2999C25.1998 31.6999 22.7998 27.2999 22.7998 22.3999C22.7998 14.3999 29.2998 7.8999 37.2998 7.8999C45.2998 7.8999 51.7998 14.3999 51.7998 22.3999C51.7998 27.2999 49.2998 31.6999 45.5998 34.2999V35.1999V36.8999V39.8999V42.6999V45.3999H42.6998" stroke="#232023" stroke-width="1.3" stroke-miterlimit="10" stroke-linecap="round" stroke-linejoin="round"/>
<path d="M3.99961 76C2.69961 75.6 1.79961 74.8 1.19961 73.9C-1.20039 69.7 4.29961 61.8 14.3996 53.5C18.4996 50.1 23.3996 46.7 28.8996 43.5" stroke="#232023" stroke-width="1.3" stroke-miterlimit="2.6131" stroke-linecap="round" stroke-linejoin="round"/>
<path d="M68.0994 30.6001C69.9994 31.0001 71.2994 31.8001 71.9994 33.0001C74.3994 37.2001 68.8994 45.1001 58.7994 53.4001C54.2994 57.1001 48.8994 60.8001 42.8994 64.3001C40.7994 65.5001 38.6994 66.6001 36.5994 67.7001C25.1994 73.5001 14.5994 76.7001 7.89941 76.6001" stroke="#232023" stroke-width="1.3" stroke-miterlimit="2.6131" stroke-linecap="round" stroke-linejoin="round"/>
<path d="M45.5996 35.0999C52.7996 32.1999 59.2996 30.4999 64.0996 30.3999" stroke="#232023" stroke-width="1.3" stroke-miterlimit="2.6131" stroke-linecap="round" stroke-linejoin="round"/>
<path d="M68.2 62.7002C65.9 59.9002 62.8 56.8002 59 53.7002" stroke="#232023" stroke-width="1.3" stroke-miterlimit="2.6131" stroke-linecap="round" stroke-linejoin="round"/>
<path d="M12.8996 30.6999C6.89961 29.6999 2.69961 30.3999 1.19961 32.9999C-1.20039 37.1999 4.29961 45.1999 14.3996 53.3999C18.8996 57.0999 24.2996 60.7999 30.2996 64.2999C32.3996 65.4999 34.4996 66.5999 36.5996 67.6999C53.6996 76.3999 68.8996 79.1999 71.9996 73.8999C73.0996 71.9999 72.4996 69.1999 70.4996 65.8999" stroke="#232023" stroke-width="1.3" stroke-miterlimit="2.6131" stroke-linecap="round" stroke-linejoin="round"/>
<path d="M28.7994 35.6001C24.4994 33.8001 20.4994 32.5001 16.8994 31.6001" stroke="#232023" stroke-width="1.3" stroke-miterlimit="2.6131" stroke-linecap="round" stroke-linejoin="round"/>
<path d="M36.3994 0.600098V5.5001" stroke="#232023" stroke-width="1.3" stroke-miterlimit="2.6131" stroke-linecap="round" stroke-linejoin="round"/>
<path d="M43.4992 1.3999L42.1992 6.0999" stroke="#232023" stroke-width="1.3" stroke-miterlimit="2.6131" stroke-linecap="round" stroke-linejoin="round"/>
<path d="M50.1998 3.8999L47.7998 8.1999" stroke="#232023" stroke-width="1.3" stroke-miterlimit="2.6131" stroke-linecap="round" stroke-linejoin="round"/>
<path d="M22.6992 4.7002L25.1992 9.0002" stroke="#232023" stroke-width="1.3" stroke-miterlimit="2.6131" stroke-linecap="round" stroke-linejoin="round"/>
<path d="M29.2998 1.80029L30.4998 6.50029" stroke="#232023" stroke-width="1.3" stroke-miterlimit="2.6131" stroke-linecap="round" stroke-linejoin="round"/>
<path d="M30.7994 28.2002L27.7994 29.4002L26.9994 28.0002L29.4994 26.0002C29.2994 25.5002 29.0994 24.9002 28.9994 24.3002L25.8994 23.8002V22.2002L28.9994 21.7002C29.0994 21.1002 29.1994 20.5002 29.4994 20.0002L26.9994 18.0002L27.7994 16.6002L30.7994 17.8002C31.1994 17.3002 31.5994 16.9002 31.9994 16.6002L30.7994 13.6002L32.1994 12.8002L34.1994 15.3002C34.6994 15.1002 35.2994 15.0002 35.8994 14.8002L36.3994 11.7002H37.9994L38.4994 14.8002C39.0994 14.9002 39.6994 15.1002 40.1994 15.3002L42.1994 12.8002L43.5994 13.6002L42.3994 16.6002C42.8994 17.0002 43.2994 17.4002 43.5994 17.8002L46.5994 16.6002L47.3994 18.0002L44.9994 20.0002C45.1994 20.5002 45.3994 21.1002 45.3994 21.7002L48.5994 22.2002V23.8002L45.3994 24.3002C45.2994 24.9002 45.1994 25.5002 44.9994 26.0002L47.4994 28.0002L46.6994 29.4002L43.6994 28.2002" stroke="#232023" stroke-width="1.3" stroke-miterlimit="2.6131" stroke-linecap="round" stroke-linejoin="round"/>
<path d="M26.8994 36.8003H28.9994H45.4994H47.5994" stroke="#232023" stroke-width="1.3" stroke-miterlimit="2.6131" stroke-linecap="round" stroke-linejoin="round"/>
<path d="M26.8994 39.8003H28.9994H45.4994H47.5994" stroke="#232023" stroke-width="1.3" stroke-miterlimit="2.6131" stroke-linecap="round" stroke-linejoin="round"/>
<path d="M26.8994 42.6001H28.9994H45.4994H47.5994" stroke="#232023" stroke-width="1.3" stroke-miterlimit="2.6131" stroke-linecap="round" stroke-linejoin="round"/>
<path d="M35.4994 50.1003H31.8994V45.3003H42.5994V50.1003H38.9994" stroke="#232023" stroke-width="1.3" stroke-miterlimit="2.6131" stroke-linecap="round" stroke-linejoin="round"/>
<path d="M39 50.1001H35.5V54.3001H39V50.1001Z" stroke="#232023" stroke-width="1.3" stroke-miterlimit="2.6131" stroke-linecap="round" stroke-linejoin="round"/>
<path d="M12.8994 30.7001C13.0994 29.8001 13.8994 29.1001 14.8994 29.1001C15.9994 29.1001 16.8994 30.0001 16.8994 31.1001C16.8994 31.3001 16.8994 31.4001 16.8994 31.5001C16.6994 32.4001 15.8994 33.0001 14.9994 33.0001C13.8994 33.0001 12.9994 32.1001 12.9994 31.0001C12.8994 31.0001 12.8994 30.9001 12.8994 30.7001Z" stroke="#232023" stroke-width="1.3" stroke-miterlimit="10" stroke-linecap="round" stroke-linejoin="round"/>
<path d="M68.1994 62.7003C68.4994 62.4003 68.9994 62.3003 69.3994 62.3003C70.4994 62.3003 71.3994 63.2003 71.3994 64.3003C71.3994 65.0003 70.9994 65.6003 70.4994 66.0003C70.1994 66.2003 69.7994 66.3003 69.3994 66.3003C68.2994 66.3003 67.3994 65.4003 67.3994 64.3003C67.3994 63.6003 67.6994 63.0003 68.1994 62.7003Z" stroke="#232023" stroke-width="1.3" stroke-miterlimit="10" stroke-linecap="round" stroke-linejoin="round"/>
<path d="M3.99941 76C4.19941 75.1 4.99941 74.5 5.89941 74.5C6.99941 74.5 7.89941 75.4 7.89941 76.5V76.6C7.79941 77.6 6.99941 78.4 5.89941 78.4C4.79941 78.4 3.89941 77.5 3.89941 76.4C3.99941 76.3 3.99941 76.2 3.99941 76Z" stroke="#232023" stroke-width="1.3" stroke-miterlimit="10" stroke-linecap="round" stroke-linejoin="round"/>
<path d="M64.0996 30.3003C64.0996 29.2003 64.9996 28.3003 66.0996 28.3003C67.1996 28.3003 68.0996 29.2003 68.0996 30.3003C68.0996 30.4003 68.0996 30.5003 68.0996 30.6003C67.9996 31.6003 67.0996 32.3003 66.0996 32.3003C64.9996 32.3003 64.0996 31.5003 64.0996 30.3003ZM64.0996 30.3003C64.0996 30.4003 64.0996 30.4003 64.0996 30.3003Z" stroke="#232023" stroke-width="1.3" stroke-miterlimit="10" stroke-linecap="round" stroke-linejoin="round"/>
</g>
<defs>
<clipPath id="clip0_518_5713">
<rect width="73.2" height="79.1" fill="white"/>
</clipPath>
</defs>
</svg>
