<svg width="81" height="73" viewBox="0 0 81 73" fill="none" xmlns="http://www.w3.org/2000/svg">
<g clip-path="url(#clip0_518_5755)">
<path d="M73.7504 52.3H7.25039C6.85039 52.3 6.65039 52 6.65039 51.6V12.7C6.65039 12.3 6.95039 12 7.25039 12H73.6504C74.0504 12 74.2504 12.3 74.2504 12.7V51.6C74.3504 52 74.0504 52.3 73.7504 52.3ZM7.95039 51H73.0504V13.4H7.95039V51Z" fill="#232023"/>
<path d="M79.4502 13.3999H1.5502C1.1502 13.3999 0.950195 13.0999 0.950195 12.6999V7.0999C0.950195 6.6999 1.2502 6.3999 1.5502 6.3999H79.3502C79.7502 6.3999 79.9502 6.6999 79.9502 7.0999V12.6999C80.0502 13.0999 79.7502 13.3999 79.4502 13.3999ZM2.2502 12.0999H78.7502V7.7999H2.2502V12.0999Z" fill="#232023"/>
<path d="M55.2506 72.3998C55.0506 72.3998 54.9506 72.2998 54.7506 72.1998L44.1506 61.5998H37.1506L26.5506 72.1998C26.2506 72.4998 25.8506 72.4998 25.6506 72.1998L23.5506 70.0998C23.4506 69.9998 23.3506 69.7998 23.3506 69.5998C23.3506 69.3998 23.4506 69.2998 23.5506 69.0998L33.9506 58.6998V51.4998C33.9506 51.0998 34.2506 50.7998 34.5506 50.7998H46.4506C46.8506 50.7998 47.0506 51.0998 47.0506 51.4998V58.3998L57.7506 69.0998C57.8506 69.1998 57.9506 69.3998 57.9506 69.5998C57.9506 69.7998 57.8506 69.8998 57.7506 70.0998L55.6506 72.1998C55.5506 72.2998 55.4506 72.3998 55.2506 72.3998ZM24.9506 69.5998L26.1506 70.7998L36.5506 60.4998C36.6506 60.3998 36.8506 60.2998 37.0506 60.2998H44.6506C44.8506 60.2998 44.9506 60.3998 45.1506 60.4998L55.5506 70.7998L56.7506 69.5998L46.0506 59.1998C45.9506 59.0998 45.8506 58.8998 45.8506 58.6998V52.1998H35.1506V58.9998C35.1506 59.1998 35.0506 59.2998 34.9506 59.4998L24.9506 69.5998Z" fill="#232023"/>
<path d="M58.1506 46.2998H53.4506C53.0506 46.2998 52.8506 45.9998 52.8506 45.5998V21.9998C52.8506 21.5998 53.1506 21.2998 53.4506 21.2998H58.1506C58.5506 21.2998 58.7506 21.5998 58.7506 21.9998V45.6998C58.7506 45.9998 58.4506 46.2998 58.1506 46.2998ZM54.0506 44.9998H57.4506V22.5998H54.0506V44.9998Z" fill="#232023"/>
<path d="M50.4504 46.2997H45.7504C45.3504 46.2997 45.1504 45.9997 45.1504 45.5997V24.8997C45.1504 24.4997 45.4504 24.1997 45.7504 24.1997H50.4504C50.8504 24.1997 51.0504 24.4997 51.0504 24.8997V45.5997C51.1504 45.9997 50.8504 46.2997 50.4504 46.2997ZM46.4504 44.9997H49.8504V25.5997H46.4504V44.9997Z" fill="#232023"/>
<path d="M42.8498 46.3001H38.1498C37.7498 46.3001 37.5498 46.0001 37.5498 45.6001V27.8001C37.5498 27.4001 37.8498 27.1001 38.1498 27.1001H42.8498C43.2498 27.1001 43.4498 27.4001 43.4498 27.8001V45.7001C43.4498 46.0001 43.1498 46.3001 42.8498 46.3001ZM38.8498 45.0001H42.2498V28.4001H38.8498V45.0001Z" fill="#232023"/>
<path d="M35.2502 46.3H30.5502C30.1502 46.3 29.9502 46 29.9502 45.6V31.7C29.9502 31.3 30.2502 31 30.5502 31H35.2502C35.6502 31 35.8502 31.3 35.8502 31.7V45.6C35.8502 46 35.5502 46.3 35.2502 46.3ZM31.1502 45H34.5502V32.4H31.1502V45Z" fill="#232023"/>
<path d="M27.5506 46.3001H22.9506C22.5506 46.3001 22.3506 46.0001 22.3506 45.6001V35.8001C22.3506 35.4001 22.6506 35.1001 22.9506 35.1001H27.6506C28.0506 35.1001 28.2506 35.4001 28.2506 35.8001V45.6001C28.2506 46.0001 27.9506 46.3001 27.5506 46.3001ZM23.5506 45.0001H26.9506V36.5001H23.5506V45.0001Z" fill="#232023"/>
<path d="M61.2504 49.1998H19.7504C19.3504 49.1998 19.1504 48.8998 19.1504 48.4998C19.1504 48.0998 19.4504 47.7998 19.7504 47.7998H61.2504C61.6504 47.7998 61.8504 48.0998 61.8504 48.4998C61.9504 48.8998 61.6504 49.1998 61.2504 49.1998Z" fill="#232023"/>
<path d="M22.9502 32.3995C22.6502 32.3995 22.4502 32.1995 22.3502 31.9995C22.2502 31.6995 22.4502 31.2995 22.7502 31.1995C22.9502 31.0995 40.3502 24.7995 47.9502 15.8995C48.1502 15.5995 48.5502 15.5995 48.8502 15.7995C49.1502 15.9995 49.1502 16.3995 48.9502 16.6995C41.1502 25.7995 23.9502 32.0995 23.2502 32.2995C23.0502 32.3995 22.9502 32.3995 22.9502 32.3995Z" fill="#232023"/>
<path d="M48.2498 20.8997C47.8498 20.8997 47.6498 20.5997 47.6498 20.1997V16.9997H44.6498C44.2498 16.9997 44.0498 16.6997 44.0498 16.3997C44.0498 15.9997 44.3498 15.6997 44.6498 15.6997H48.3498C48.5498 15.6997 48.6498 15.7997 48.8498 15.8997C48.9498 15.9997 49.0498 16.1997 49.0498 16.3997V20.2997C48.9498 20.5997 48.6498 20.8997 48.2498 20.8997Z" fill="#232023"/>
<path d="M43.0506 7.7999H37.9506C37.5506 7.7999 37.3506 7.4999 37.3506 7.0999V3.0999C37.3506 1.2999 38.7506 -0.100098 40.5506 -0.100098C42.3506 -0.100098 43.7506 1.2999 43.7506 3.0999V7.0999C43.6506 7.4999 43.3506 7.7999 43.0506 7.7999ZM38.6506 6.4999H42.4506V3.1999C42.4506 2.1999 41.6506 1.2999 40.5506 1.2999C39.5506 1.2999 38.6506 2.0999 38.6506 3.1999V6.4999Z" fill="#232023"/>
</g>
<defs>
<clipPath id="clip0_518_5755">
<rect width="79.1" height="72.4" fill="white" transform="translate(0.950195)"/>
</clipPath>
</defs>
</svg>
