<svg width="79" height="80" viewBox="0 0 79 80" fill="none" xmlns="http://www.w3.org/2000/svg">
<g clip-path="url(#clip0_518_5784)">
<path d="M39.6002 78.9998C17.9002 78.9998 0.200195 61.3998 0.200195 39.6998C0.200195 17.9998 17.9002 0.299805 39.6002 0.299805C61.3002 0.299805 79.0002 17.9998 79.0002 39.6998C78.9002 61.3998 61.3002 78.9998 39.6002 78.9998ZM39.6002 1.5998C18.6002 1.5998 1.5002 18.6998 1.5002 39.6998C1.5002 60.6998 18.6002 77.7998 39.6002 77.7998C60.6002 77.7998 77.7002 60.6998 77.7002 39.6998C77.6002 18.6998 60.6002 1.5998 39.6002 1.5998Z" fill="#232023"/>
<path d="M39.6 78.9998C32.8 78.9998 26.5 72.5998 22.7 61.8998C22.6 61.6998 22.7 61.5998 22.7 61.3998C22.8 61.1998 22.9 61.0998 23.1 61.0998C24.3 60.6998 25.2 59.6998 25.4 58.3998C25.6 57.3998 25.3 56.3998 24.6 55.6998C24 54.8998 23 54.4998 22 54.4998C21.7 54.4998 21.5 54.4998 21.2 54.5998C21 54.5998 20.8 54.5998 20.7 54.4998C20.6 54.3998 20.4 54.2998 20.4 54.0998C19.5 49.4998 19 44.5998 19 39.6998C19 34.3998 19.5 29.1998 20.6 24.4998C20.6 24.2998 20.7 24.1998 20.9 24.0998C21 23.9998 21.2 23.9998 21.4 23.9998C23.4 24.4998 25.3 23.0998 25.6 21.2998C25.6 21.0998 25.6 20.8998 25.6 20.7998C25.6 19.2998 24.7 17.9998 23.3 17.5998C23.1 17.4998 23 17.3998 22.9 17.2998C22.8 17.0998 22.8 16.9998 22.9 16.7998C26.8 6.2998 32.9 0.299805 39.6 0.299805C46.6 0.299805 53 6.9998 56.8 18.2998C57 18.9998 57.2 19.6998 57.5 20.3998C57.6 20.4998 57.6 20.5998 57.6 20.6998C59.3 26.4998 60.1 32.9998 60.1 39.6998C60.1 44.6998 59.6 49.4998 58.7 54.0998C58.7 54.2998 58.6 54.3998 58.4 54.4998C58.2 54.5998 58.1 54.5998 57.9 54.5998C57.7 54.4998 57.4 54.4998 57.1 54.4998C55.2 54.4998 53.7 55.9998 53.7 57.8998C53.7 59.3998 54.7 60.6998 56.1 61.0998C56.3 61.1998 56.4 61.2998 56.5 61.3998C56.6 61.5998 56.6 61.6998 56.5 61.8998C52.7 72.6998 46.3 78.9998 39.6 78.9998ZM24.1 62.0998C27.7 71.8998 33.5 77.6998 39.6 77.6998C45.7 77.6998 51.4 71.8998 55.1 62.0998C53.5 61.2998 52.5 59.6998 52.5 57.8998C52.5 55.2998 54.6 53.1998 57.2 53.1998C57.3 53.1998 57.5 53.1998 57.6 53.1998C58.4 48.8998 58.9 44.2998 58.9 39.5998C58.9 33.1998 58.1 26.8998 56.5 21.3998C51 22.3998 45.5 22.8998 40 22.8998C39.9 22.8998 39.9 22.8998 39.8 22.8998C35.5 22.8998 31.2 22.5998 26.9 21.9998C26.3 24.0998 24.2 25.4998 22 25.2998C21.1 29.7998 20.6 34.5998 20.6 39.6998C20.6 44.3998 21 48.8998 21.9 53.2998C22 53.2998 22.2 53.2998 22.3 53.2998C23.7 53.2998 25 53.8998 25.9 54.8998C26.8 55.8998 27.2 57.2998 27 58.6998C26.4 60.1998 25.5 61.4998 24.1 62.0998ZM39.7 21.5998C45.1 21.5998 50.6 21.0998 56.1 20.1998C55.9 19.6998 55.8 19.1998 55.6 18.6998C52 7.99981 46 1.5998 39.6 1.5998C33.7 1.5998 28.1 7.09981 24.4 16.4998C26 17.2998 27 18.8998 27 20.6998V20.7998C31.2 21.2998 35.5 21.5998 39.7 21.5998Z" fill="#232023"/>
<path d="M78.3002 40.3H0.900195C0.500195 40.3 0.200195 40 0.200195 39.7C0.200195 39.3 0.500195 39 0.900195 39H78.3002C78.7002 39 79.0002 39.3 79.0002 39.7C78.9002 40 78.6002 40.3 78.3002 40.3Z" fill="#232023"/>
<path d="M39.6004 78.9998C39.2004 78.9998 38.9004 78.6998 38.9004 78.2998V0.999805C38.9004 0.599805 39.2004 0.299805 39.6004 0.299805C39.9004 0.299805 40.2004 0.599805 40.2004 0.999805V78.3998C40.2004 78.7998 39.9004 78.9998 39.6004 78.9998Z" fill="#232023"/>
<path d="M22.3006 25.3C19.7006 25.3 17.6006 23.2 17.6006 20.6C17.6006 20.5 17.6006 20.4 17.6006 20.3C14.4006 19.5 11.1006 18.6 7.90062 17.6C7.60062 17.5 7.40062 17.1 7.50062 16.8C7.60062 16.5 8.00062 16.3 8.30062 16.4C11.5006 17.5 14.7006 18.4 17.8006 19.1C18.5006 17.3 20.2006 16 22.2006 16C24.8006 16 26.9006 18.1 26.9006 20.7V20.8C41.5006 22.8 56.2006 21.3 70.7006 16.4C71.0006 16.3 71.4006 16.5 71.5006 16.8C71.6006 17.1 71.4006 17.5 71.1006 17.6C56.4006 22.6 41.5006 24.1 26.7006 22C26.2006 24 24.4006 25.3 22.3006 25.3ZM19.0006 20C19.0006 20.2 18.9006 20.5 18.9006 20.7C18.9006 22.6 20.4006 24.1 22.3006 24.1C23.9006 24.1 25.4006 22.9 25.6006 21.3C25.6006 21.1 25.6006 20.9 25.6006 20.8C25.6006 18.9 24.1006 17.4 22.2006 17.4C20.7006 17.3 19.3006 18.4 19.0006 20Z" fill="#232023"/>
<path d="M71.0002 62.2C70.9002 62.2 70.9002 62.2 70.8002 62.2C67.5002 61.1 64.1002 60.1 60.9002 59.4C60.6002 59.3 60.3002 59 60.4002 58.6C60.5002 58.2 60.8002 58 61.2002 58.1C64.5002 58.9 67.8002 59.8 71.2002 61C71.5002 61.1 71.7002 61.5 71.6002 61.8C71.5002 62 71.2002 62.2 71.0002 62.2ZM8.20023 62.2C7.90023 62.2 7.70023 62 7.60023 61.8C7.50023 61.5 7.70023 61.1 8.00023 61C11.4002 59.9 14.7002 58.9 18.0002 58.2C18.3002 58.1 18.7002 58.3 18.8002 58.7C18.9002 59 18.7002 59.4 18.3002 59.5C15.1002 60.2 11.7002 61.2 8.40023 62.3C8.30023 62.2 8.30023 62.2 8.20023 62.2ZM26.0002 57.9C25.7002 57.9 25.4002 57.7 25.4002 57.3C25.3002 56.9 25.6002 56.6 25.9002 56.6C35.0002 55.3 44.1002 55.3 53.1002 56.6C53.5002 56.7 53.7002 57 53.6002 57.3C53.5002 57.7 53.2002 57.9 52.9002 57.8C44.1002 56.6 35.1002 56.6 26.0002 57.9C26.1002 57.9 26.1002 57.9 26.0002 57.9Z" fill="#232023"/>
<path d="M57.1004 62.5997C54.5004 62.5997 52.4004 60.4997 52.4004 57.8997C52.4004 55.2997 54.5004 53.1997 57.1004 53.1997C58.5004 53.1997 59.8004 53.7997 60.7004 54.7997C61.6004 55.7997 62.0004 57.1997 61.8004 58.5997C61.3004 60.8997 59.3004 62.5997 57.1004 62.5997ZM57.1004 54.4997C55.2004 54.4997 53.7004 55.9997 53.7004 57.8997C53.7004 59.7997 55.2004 61.2997 57.1004 61.2997C58.7004 61.2997 60.2004 60.0997 60.4004 58.4997C60.6004 57.4997 60.3004 56.4997 59.6004 55.7997C59.0004 54.9997 58.1004 54.4997 57.1004 54.4997Z" fill="#232023"/>
<path d="M22.1004 62.5997C19.5004 62.5997 17.4004 60.4997 17.4004 57.8997C17.4004 55.2997 19.5004 53.1997 22.1004 53.1997C23.5004 53.1997 24.8004 53.7997 25.7004 54.7997C26.6004 55.7997 27.0004 57.1997 26.8004 58.5997C26.3004 60.8997 24.4004 62.5997 22.1004 62.5997ZM22.1004 54.4997C20.2004 54.4997 18.7004 55.9997 18.7004 57.8997C18.7004 59.7997 20.2004 61.2997 22.1004 61.2997C23.8004 61.2997 25.2004 60.0997 25.4004 58.4997C25.6004 57.4997 25.3004 56.4997 24.6004 55.7997C24.0004 54.9997 23.1004 54.4997 22.1004 54.4997Z" fill="#232023"/>
</g>
<defs>
<clipPath id="clip0_518_5784">
<rect width="78.7" height="79.1" fill="white" transform="translate(0.200195)"/>
</clipPath>
</defs>
</svg>
