<svg width="77" height="80" viewBox="0 0 77 80" fill="none" xmlns="http://www.w3.org/2000/svg">
<g clip-path="url(#clip0_518_5838)">
<path d="M41.6004 79.1001H36.2004C35.9004 79.1001 35.6004 78.9001 35.6004 78.5001L34.1004 68.6001C32.5004 68.3001 30.8004 67.9001 29.3004 67.3001L23.1004 75.1001C22.9004 75.4001 22.5004 75.4001 22.3004 75.3001L17.7004 72.6001C17.4004 72.4001 17.3004 72.1002 17.4004 71.8001L21.0004 62.5001C19.7004 61.4001 18.6004 60.3001 17.5004 59.0001L8.20039 62.7001C7.90039 62.8001 7.60039 62.7001 7.40039 62.4001L4.70039 57.8001C4.50039 57.5001 4.60039 57.2001 4.90039 57.0001L12.7004 50.8001C12.1004 49.2001 11.7004 47.6001 11.4004 46.0001L1.50039 44.5001C1.20039 44.5001 0.900391 44.2001 0.900391 43.9001V38.5001C0.900391 38.2001 1.10039 37.9001 1.50039 37.9001L11.4004 36.4001C11.7004 34.8001 12.1004 33.2001 12.7004 31.6001L4.90039 25.4001C4.60039 25.2001 4.60039 24.8001 4.70039 24.6001L7.40039 20.0001C7.60039 19.7001 7.90039 19.6001 8.20039 19.7001L17.5004 23.4001C18.6004 22.1001 19.8004 20.9001 21.0004 19.9001L17.4004 10.6001C17.3004 10.3001 17.4004 10.0001 17.7004 9.80015L22.3004 7.10015C22.6004 6.90015 22.9004 7.00015 23.1004 7.30015L29.3004 15.1001C30.9004 14.5001 32.5004 14.1001 34.1004 13.8001L35.0004 8.00015C35.1004 7.60015 35.4004 7.40015 35.7004 7.50015C36.1004 7.60015 36.3004 7.90015 36.2004 8.20015L35.3004 14.4001C35.3004 14.7001 35.0004 14.9001 34.8004 14.9001C33.0004 15.2001 31.1004 15.7001 29.3004 16.4001C29.0004 16.5001 28.7004 16.4001 28.6004 16.2001L22.4004 8.50015L18.7004 10.6001L22.3004 19.8001C22.4004 20.1001 22.3004 20.4001 22.1004 20.5001C20.6004 21.7001 19.3004 23.0001 18.1004 24.5001C17.9004 24.7001 17.6004 24.8001 17.4004 24.7001L8.20039 21.1001L6.10039 24.8001L13.8004 31.0001C14.0004 31.2001 14.1004 31.5001 14.0004 31.7001C13.3004 33.5001 12.8004 35.3001 12.5004 37.2001C12.5004 37.5001 12.2004 37.7001 12.0004 37.7001L2.20039 39.2001V43.5001L12.0004 45.0001C12.3004 45.0001 12.5004 45.3001 12.5004 45.5001C12.8004 47.4001 13.3004 49.2001 14.0004 51.0001C14.1004 51.3001 14.0004 51.6001 13.8004 51.7001L6.10039 57.9001L8.20039 61.6001L17.4004 58.0001C17.7004 57.9001 18.0004 58.0001 18.1004 58.2001C19.3004 59.7001 20.7004 61.1001 22.1004 62.2001C22.3004 62.4001 22.4004 62.7001 22.3004 62.9001L18.7004 72.1001L22.4004 74.2001L28.6004 66.5001C28.8004 66.3001 29.1004 66.2001 29.3004 66.3001C31.1004 67.0001 32.9004 67.5001 34.8004 67.8001C35.1004 67.8001 35.3004 68.1001 35.3004 68.3001L36.8004 78.1001H41.1004L42.6004 68.3001C42.6004 68.0001 42.9004 67.8001 43.1004 67.8001C45.0004 67.5001 46.8004 67.0001 48.6004 66.3001C48.9004 66.2001 49.2004 66.3001 49.3004 66.5001L55.5004 74.2001L59.2004 72.1001L55.6004 62.9001C55.5004 62.6001 55.6004 62.3001 55.8004 62.2001C57.3004 61.0001 58.6004 59.7001 59.8004 58.2001C60.0004 58.0001 60.3004 57.9001 60.5004 58.0001L69.7004 61.6001L71.8004 57.9001L64.1004 51.7001C63.9004 51.3001 63.8004 51.0001 63.9004 50.7001C64.6004 48.9001 65.1004 47.1001 65.4004 45.2001C65.4004 44.9001 65.7004 44.7001 65.9004 44.7001L75.7004 43.2001V38.9001L65.9004 37.5001C65.6004 37.5001 65.4004 37.2001 65.4004 37.0001C65.1004 35.1001 64.6004 33.3001 63.9004 31.5001C63.8004 31.2001 63.9004 30.9001 64.1004 30.8001L68.8004 27.0001C69.1004 26.8001 69.5004 26.8001 69.7004 27.1001C69.9004 27.4001 69.9004 27.8001 69.6004 28.0001L65.2004 31.5001C65.8004 33.1001 66.2004 34.7001 66.5004 36.3001L76.4004 37.8001C76.7004 37.8001 77.0004 38.1001 77.0004 38.4001V43.8001C77.0004 44.1001 76.8004 44.4001 76.4004 44.4001L66.5004 45.9001C66.2004 47.5001 65.8004 49.2001 65.2004 50.7001L73.0004 56.9001C73.3004 57.1001 73.3004 57.5001 73.2004 57.7001L70.5004 62.3001C70.3004 62.6001 70.0004 62.7001 69.7004 62.6001L60.5004 59.0001C59.4004 60.3001 58.2004 61.5001 57.0004 62.5001L60.7004 71.8001C60.8004 72.1002 60.7004 72.4001 60.4004 72.6001L55.7004 75.3001C55.4004 75.5001 55.1004 75.4001 54.9004 75.1001L48.7004 67.3001C47.1004 67.9001 45.5004 68.3001 43.9004 68.6001L42.4004 78.5001C42.2004 78.9001 42.0004 79.1001 41.6004 79.1001ZM39.0004 55.4001C31.1004 55.4001 24.6004 48.9001 24.6004 41.0001C24.6004 33.7001 30.0004 27.6001 37.2004 26.7001C37.6004 26.7001 37.9004 26.9001 37.9004 27.3001C37.9004 27.7001 37.7004 28.0001 37.3004 28.0001C30.8004 28.8001 25.8004 34.4001 25.8004 41.0001C25.8004 48.2001 31.7004 54.1001 38.9004 54.1001C46.1004 54.1001 52.0004 48.2001 52.0004 41.0001C52.0004 38.1001 51.0004 35.3001 49.2004 33.0001C49.0004 32.7001 49.0004 32.3001 49.3004 32.1001C49.6004 31.9001 50.0004 31.9001 50.2004 32.2001C52.2004 34.8001 53.2004 37.8001 53.2004 41.0001C53.3004 49.0001 46.9004 55.4001 39.0004 55.4001Z" fill="#232023"/>
<path d="M41.8006 38.8C41.7006 38.8 41.6006 38.8 41.5006 38.7C41.3006 38.6 41.2006 38.4 41.2006 38.1V28.1H35.7006C35.3006 28.1 35.1006 27.8 35.1006 27.4V0.7C35.1006 0.3 35.4006 0 35.7006 0H75.6006C76.0006 0 76.2006 0.3 76.2006 0.7V27.5C76.2006 27.9 75.9006 28.2 75.6006 28.2H57.5006L42.2006 38.7C42.1006 38.8 41.9006 38.8 41.8006 38.8ZM36.3006 26.8H41.8006C42.2006 26.8 42.4006 27.1 42.4006 27.5V37L56.8006 27C56.9006 26.9 57.0006 26.9 57.2006 26.9H74.9006V1.3H36.3006V26.8Z" fill="#232023"/>
<path d="M63.4004 7.3H41.6004C41.2004 7.3 40.9004 7 40.9004 6.7C40.9004 6.3 41.2004 6 41.6004 6H63.5004C63.9004 6 64.1004 6.3 64.1004 6.7C64.1004 7 63.8004 7.3 63.4004 7.3Z" fill="#232023"/>
<path d="M69.6 7.3H66.3C65.9 7.3 65.7 7 65.7 6.6C65.6 6.3 65.9 6 66.3 6H69.6C70 6 70.2 6.3 70.2 6.7C70.3 7 70 7.3 69.6 7.3Z" fill="#232023"/>
<path d="M69.6006 11.0001H47.2006C46.8006 11.0001 46.6006 10.7001 46.6006 10.3001C46.6006 9.9001 46.9006 9.6001 47.2006 9.6001H69.6006C70.0006 9.6001 70.2006 9.9001 70.2006 10.3001C70.3006 10.7001 70.0006 11.0001 69.6006 11.0001Z" fill="#232023"/>
<path d="M44.9 11.0001H41.6C41.2 11.0001 41 10.7001 41 10.3001C41 9.9001 41.3 9.6001 41.6 9.6001H44.9C45.3 9.6001 45.5 9.9001 45.5 10.3001C45.6 10.7001 45.3 11.0001 44.9 11.0001Z" fill="#232023"/>
<path d="M61.5 14.6002H41.6C41.2 14.6002 41 14.3002 41 13.9002C41 13.5002 41.3 13.2002 41.6 13.2002H61.5C61.9 13.2002 62.1 13.5002 62.1 13.9002C62.2 14.3002 61.9 14.6002 61.5 14.6002Z" fill="#232023"/>
<path d="M69.6002 14.6002H66.3002C65.9002 14.6002 65.7002 14.3002 65.7002 13.9002C65.7002 13.5002 66.0002 13.2002 66.3002 13.2002H69.6002C70.0002 13.2002 70.2002 13.5002 70.2002 13.9002C70.3002 14.3002 70.0002 14.6002 69.6002 14.6002Z" fill="#232023"/>
<path d="M69.6002 18.2999H46.8002C46.4002 18.2999 46.2002 17.9999 46.2002 17.5999C46.2002 17.1999 46.5002 16.8999 46.8002 16.8999H69.6002C70.0002 16.8999 70.2002 17.1999 70.2002 17.5999C70.2002 17.9999 70.0002 18.2999 69.6002 18.2999Z" fill="#232023"/>
<path d="M44.9 18.2999H41.6C41.2 18.2999 41 17.9999 41 17.5999C41 17.1999 41.3 16.8999 41.6 16.8999H44.9C45.3 16.8999 45.5 17.1999 45.5 17.5999C45.5 17.9999 45.3 18.2999 44.9 18.2999Z" fill="#232023"/>
<path d="M63.1 22.0001H41.6C41.2 22.0001 41 21.7001 41 21.3001C41 20.9001 41.3 20.6001 41.6 20.6001H63.2C63.6 20.6001 63.8 20.9001 63.8 21.3001C63.8 21.7001 63.5 22.0001 63.1 22.0001Z" fill="#232023"/>
<path d="M69.6002 22.0001H66.3002C65.9002 22.0001 65.7002 21.7001 65.7002 21.3001C65.7002 20.9001 66.0002 20.6001 66.3002 20.6001H69.6002C70.0002 20.6001 70.2002 20.9001 70.2002 21.3001C70.3002 21.7001 70.0002 22.0001 69.6002 22.0001Z" fill="#232023"/>
</g>
<defs>
<clipPath id="clip0_518_5838">
<rect width="76.1" height="79.1" fill="white" transform="translate(0.900391)"/>
</clipPath>
</defs>
</svg>
