<svg width="195" height="50" viewBox="0 0 195 50" fill="none" xmlns="http://www.w3.org/2000/svg">
<path d="M141.322 49.1306C138.48 49.1306 135.998 48.9066 133.875 48.4587C131.789 48.0107 129.9 47.356 128.209 46.4946L130.044 38.8966C130.944 39.379 131.987 39.7925 133.174 40.1371C134.361 40.5161 135.584 40.7918 136.843 40.9641C138.102 41.1708 139.254 41.2742 140.297 41.2742C142.527 41.2742 144.164 40.809 145.208 39.8787C146.251 38.9827 146.772 37.6906 146.772 36.0021V32.3324H147.258C146.682 33.7107 145.567 34.8134 143.912 35.6403C142.258 36.4673 140.459 36.8808 138.516 36.8808C136.106 36.8808 133.983 36.3467 132.149 35.2785C130.314 34.2103 128.875 32.6942 127.832 30.7301C126.824 28.766 126.321 26.4401 126.321 23.7524C126.321 21.0647 126.824 18.7388 127.832 16.7747C128.875 14.7761 130.314 13.2427 132.149 12.1746C133.983 11.1064 136.106 10.5723 138.516 10.5723C140.531 10.5723 142.33 10.9858 143.912 11.8127C145.495 12.6397 146.575 13.7079 147.15 15.0173H146.772L147.366 11.1925H158.158C158.015 12.433 157.907 13.6907 157.835 14.9656C157.763 16.2061 157.727 17.4466 157.727 18.6871V34.8134C157.727 39.3962 156.324 42.9282 153.518 45.4091C150.712 47.8901 146.647 49.1306 141.322 49.1306ZM142.186 28.9727C143.553 28.9727 144.632 28.542 145.423 27.6806C146.215 26.7847 146.611 25.4753 146.611 23.7524C146.611 21.995 146.215 20.6856 145.423 19.8242C144.632 18.9283 143.553 18.4803 142.186 18.4803C140.783 18.4803 139.667 18.9283 138.84 19.8242C138.049 20.6856 137.653 21.995 137.653 23.7524C137.653 25.4753 138.049 26.7847 138.84 27.6806C139.667 28.542 140.783 28.9727 142.186 28.9727Z" fill="#232023"/>
<path d="M75.243 37.5527V18.6871C75.243 17.4466 75.2071 16.2061 75.1351 14.9656C75.0632 13.6907 74.9552 12.433 74.8113 11.1925H85.6038L86.8449 19.8242H85.1721C85.5318 17.7223 86.0715 15.9994 86.791 14.6555C87.5464 13.2772 88.5178 12.2607 89.7049 11.606C90.8921 10.9168 92.3311 10.5723 94.0219 10.5723C94.8493 10.5723 95.4429 10.6067 95.8027 10.6756C96.1984 10.7446 96.6121 10.8652 97.0438 11.0374V20.4444C96.0725 20.0309 95.299 19.7725 94.7234 19.6691C94.1478 19.5313 93.3924 19.4624 92.457 19.4624C90.982 19.4624 89.8129 19.6864 88.9495 20.1343C88.0861 20.5478 87.4745 21.2542 87.1147 22.2535C86.755 23.2527 86.5751 24.6138 86.5751 26.3367V37.5527H75.243Z" fill="#232023"/>
<path d="M12.1955 38.6617C9.85711 38.6617 7.77057 38.1104 5.93585 37.0077C4.10113 35.9051 2.64415 34.32 1.56491 32.2525C0.521635 30.1851 0 27.7213 0 24.8613C0 22.0013 0.521635 19.5376 1.56491 17.4701C2.60818 15.4027 4.04717 13.8176 5.88189 12.7149C7.75258 11.6123 9.85711 11.061 12.1955 11.061C14.1741 11.061 15.9908 11.4917 17.6457 12.3531C19.3005 13.1801 20.4157 14.2655 20.9913 15.6094H20.1819V0H31.406V38.0415H20.3438V33.8031H21.0992C20.5956 35.2504 19.4984 36.4219 17.8076 37.3178C16.1167 38.2137 14.246 38.6617 12.1955 38.6617ZM15.9189 30.7536C17.214 30.7536 18.2932 30.3057 19.1566 29.4098C20.02 28.5139 20.4517 26.9977 20.4517 24.8613C20.4517 22.7249 20.02 21.2088 19.1566 20.3129C18.2932 19.417 17.214 18.969 15.9189 18.969C14.6238 18.969 13.5265 19.417 12.6272 20.3129C11.7638 21.2088 11.3321 22.7249 11.3321 24.8613C11.3321 26.9977 11.7638 28.5139 12.6272 29.4098C13.5265 30.3057 14.6238 30.7536 15.9189 30.7536Z" fill="#232023"/>
<path d="M68.6792 24.0814C68.6792 32.191 61.8157 38.7652 53.349 38.7652C44.8824 38.7652 38.0189 32.191 38.0189 24.0814C38.0189 15.9718 44.8824 9.39771 53.349 9.39771C61.8157 9.39771 68.6792 15.9718 68.6792 24.0814ZM47.0768 24.0814C47.0768 27.3994 49.885 30.0892 53.349 30.0892C56.8131 30.0892 59.6213 27.3994 59.6213 24.0814C59.6213 20.7635 56.8131 18.0737 53.349 18.0737C49.885 18.0737 47.0768 20.7635 47.0768 24.0814Z" fill="#EF0A0A"/>
<path d="M195 24.0814C195 32.191 188.136 38.7652 179.67 38.7652C171.203 38.7652 164.34 32.191 164.34 24.0814C164.34 15.9718 171.203 9.39771 179.67 9.39771C188.136 9.39771 195 15.9718 195 24.0814ZM173.398 24.0814C173.398 27.3994 176.206 30.0892 179.67 30.0892C183.134 30.0892 185.942 27.3994 185.942 24.0814C185.942 20.7635 183.134 18.0737 179.67 18.0737C176.206 18.0737 173.398 20.7635 173.398 24.0814Z" fill="#EF0A0A"/>
<path d="M120.189 24.6687C120.189 29.2101 116.345 32.8916 111.604 32.8916C106.862 32.8916 103.019 29.2101 103.019 24.6687C103.019 20.1273 106.862 16.4458 111.604 16.4458C116.345 16.4458 120.189 20.1273 120.189 24.6687Z" fill="#EF0A0A"/>
</svg>
